<svg width="20" height="20" viewBox="0 0 20 20" fill="none" xmlns="http://www.w3.org/2000/svg">
<path d="M9.99993 11.4118C10.2898 11.4118 10.5734 11.329 10.8145 11.1739C11.0556 11.0187 11.2435 10.7982 11.3545 10.5403C11.4654 10.2824 11.4945 9.99842 11.4379 9.72454C11.3813 9.45078 11.2417 9.19924 11.0367 9.00172C10.8316 8.80432 10.5703 8.66989 10.286 8.61539C10.0016 8.56088 9.7067 8.58887 9.43884 8.69567C9.17098 8.8026 8.94201 8.98355 8.78086 9.21569C8.61971 9.44783 8.53378 9.72085 8.53378 10C8.53378 10.3744 8.6883 10.7335 8.96317 10.9983C9.23817 11.263 9.61108 11.4118 9.99993 11.4118ZM16.5338 11.4118C16.8238 11.4118 17.1073 11.329 17.3484 11.1739C17.5895 11.0187 17.7774 10.7982 17.8884 10.5403C17.9993 10.2824 18.0284 9.99842 17.9718 9.72454C17.9152 9.45078 17.7756 9.19924 17.5706 9.00172C17.3655 8.80432 17.1042 8.66989 16.8199 8.61539C16.5355 8.56088 16.2406 8.58887 15.9728 8.69567C15.7049 8.8026 15.4759 8.98355 15.3148 9.21569C15.1536 9.44783 15.0677 9.72085 15.0677 10C15.0677 10.3744 15.2222 10.7335 15.4971 10.9983C15.7721 11.263 16.145 11.4118 16.5338 11.4118ZM3.46602 11.4118C3.756 11.4118 4.03947 11.329 4.2806 11.1739C4.52172 11.0188 4.70967 10.7983 4.82065 10.5404C4.93164 10.2824 4.9607 9.99854 4.90414 9.72466C4.84757 9.45078 4.70795 9.19924 4.50292 9.00184C4.29787 8.80432 4.03663 8.66989 3.75222 8.61539C3.46782 8.56088 3.17302 8.58887 2.90511 8.69567C2.6372 8.8026 2.4082 8.98355 2.2471 9.21569C2.08599 9.44783 2 9.72073 2 10C2 10.3744 2.15446 10.7335 2.42938 10.9982C2.70431 11.263 3.0772 11.4118 3.46602 11.4118Z" fill="black"/>
</svg>
