<svg width="24" height="24" viewBox="0 0 24 24" fill="none" xmlns="http://www.w3.org/2000/svg">
<path d="M22.2069 20.7929L16.3141 14.8999C17.5655 13.2888 18.1557 11.2614 17.9647 9.23038C17.7737 7.19937 16.8158 5.31752 15.286 3.96799C13.7562 2.61845 11.7696 1.90269 9.73062 1.96645C7.69165 2.0302 5.75363 2.86868 4.31115 4.31115C2.86868 5.75363 2.0302 7.69165 1.96645 9.73062C1.90269 11.7696 2.61845 13.7562 3.96799 15.286C5.31752 16.8158 7.19937 17.7737 9.23038 17.9647C11.2614 18.1557 13.2888 17.5655 14.8999 16.3141L20.7929 22.2069L22.2069 20.7929ZM9.99994 15.9999C8.81325 15.9999 7.65322 15.648 6.66652 14.9888C5.67983 14.3295 4.91079 13.3924 4.45667 12.296C4.00254 11.1997 3.88372 9.99329 4.11523 8.8294C4.34674 7.66551 4.91819 6.59642 5.7573 5.7573C6.59642 4.91819 7.66551 4.34674 8.8294 4.11523C9.99329 3.88372 11.1997 4.00254 12.296 4.45667C13.3924 4.91079 14.3295 5.67983 14.9888 6.66652C15.648 7.65322 15.9999 8.81325 15.9999 9.99994C15.9981 11.5907 15.3654 13.1158 14.2406 14.2406C13.1158 15.3654 11.5907 15.9981 9.99994 15.9999Z" fill="black"/>
</svg>
